<?xml version="1.0" encoding="UTF-8" standalone="no"?>
<svg
   xmlns:dc="http://purl.org/dc/elements/1.1/"
   xmlns:cc="http://creativecommons.org/ns#"
   xmlns:rdf="http://www.w3.org/1999/02/22-rdf-syntax-ns#"
   xmlns:svg="http://www.w3.org/2000/svg"
   xmlns="http://www.w3.org/2000/svg"
   xmlns:sodipodi="http://sodipodi.sourceforge.net/DTD/sodipodi-0.dtd"
   xmlns:inkscape="http://www.inkscape.org/namespaces/inkscape"
   version="1.1"
   viewBox="0 0 147.01575 151.99213"
   stroke-miterlimit="10"
   id="svg2"
   inkscape:version="0.48.2 r9819"
   width="100%"
   height="100%"
   sodipodi:docname="The_Stare.svg"
   style="fill:none;stroke:none">
  <metadata
     id="metadata27">
    <rdf:RDF>
      <cc:Work
         rdf:about="">
        <dc:format>image/svg+xml</dc:format>
        <dc:type
           rdf:resource="http://purl.org/dc/dcmitype/StillImage" />
      </cc:Work>
    </rdf:RDF>
  </metadata>
  <defs
     id="defs25">
    <filter
       id="filter4488"
       inkscape:label="Invert"
       x="0"
       y="0"
       width="1"
       height="1"
       inkscape:menu="Color"
       inkscape:menu-tooltip="Invert colors"
       color-interpolation-filters="sRGB">
      <feColorMatrix
         id="feColorMatrix4490"
         type="saturate"
         values="1"
         result="fbSourceGraphic" />
      <feColorMatrix
         id="feColorMatrix4492"
         in="fbSourceGraphic"
         values="-1 0 0 0 1 0 -1 0 0 1 0 0 -1 0 1 0 0 0 1 0 " />
    </filter>
  </defs>
  <sodipodi:namedview
     pagecolor="#ffffff"
     bordercolor="#666666"
     borderopacity="1"
     objecttolerance="10"
     gridtolerance="10"
     guidetolerance="10"
     inkscape:pageopacity="0"
     inkscape:pageshadow="2"
     inkscape:window-width="1920"
     inkscape:window-height="1021"
     id="namedview23"
     showgrid="false"
     inkscape:zoom="2.0663231"
     inkscape:cx="26.747526"
     inkscape:cy="17.850534"
     inkscape:window-x="-8"
     inkscape:window-y="-8"
     inkscape:window-maximized="1"
     inkscape:current-layer="svg2"
     fit-margin-top="0"
     fit-margin-left="0"
     fit-margin-right="0"
     fit-margin-bottom="0" />
  <clipPath
     id="p.0">
    <path
       d="M 0,0 720,0 720,540 0,540 0,0 z"
       clip-rule="nonzero"
       id="path5"
       inkscape:connector-curvature="0" />
  </clipPath>
  <path
     style="fill:#ffffff;fill-rule:evenodd"
     inkscape:connector-curvature="0"
     id="path11"
     d="m 0.5,0.5 146.01575,0 0,150.99213 -146.01575,0 z" />
  <path
     style="stroke:#000000;stroke-width:1;stroke-linecap:butt;stroke-linejoin:round"
     inkscape:connector-curvature="0"
     id="path13"
     d="m 0.5,0.5 146.01575,0 0,150.99213 -146.01575,0 z" />
  <path
     style="fill:#ffffff;fill-rule:evenodd"
     inkscape:connector-curvature="0"
     id="path15"
     d="m 123.50787,16.003937 0,0 c 0,-4.696594 3.80734,-8.503937 8.50394,-8.503937 l 0,0 c 2.25538,0 4.41839,0.8959479 6.0132,2.4907455 1.59478,1.5947975 2.49073,3.7578065 2.49073,6.0131905 l 0,0 c 0,4.696594 -3.80734,8.503937 -8.50393,8.503937 l 0,0 c -4.6966,0 -8.50394,-3.807342 -8.50394,-8.503937 z" />
  <path
     style="stroke:#000000;stroke-width:1;stroke-linecap:butt;stroke-linejoin:round"
     inkscape:connector-curvature="0"
     id="path17"
     d="m 123.50787,16.003937 0,0 c 0,-4.696594 3.80734,-8.503937 8.50394,-8.503937 l 0,0 c 2.25538,0 4.41839,0.8959479 6.0132,2.4907455 1.59478,1.5947975 2.49073,3.7578065 2.49073,6.0131905 l 0,0 c 0,4.696594 -3.80734,8.503937 -8.50393,8.503937 l 0,0 c -4.6966,0 -8.50394,-3.807342 -8.50394,-8.503937 z" />
  <path
     style="fill:none;stroke:#000000;stroke-width:3;stroke-linecap:butt;stroke-linejoin:miter;stroke-miterlimit:10;stroke-opacity:1;stroke-dasharray:none"
     d="M 17.369879,75.509242 C 40.096069,70.736896 42.745219,48.77022 76.229699,48.478307 108.373,48.685848 112.39995,72.232422 133.20638,75.851447"
     id="path4494"
     inkscape:connector-curvature="0"
     sodipodi:nodetypes="ccc" />
  <path
     style="fill:none;stroke:#000000;stroke-width:3;stroke-linecap:butt;stroke-linejoin:miter;stroke-miterlimit:10;stroke-opacity:1;stroke-dasharray:none"
     d="m 17.155059,75.237119 c 22.89729,6.483374 25.37533,26.739021 58.85981,27.030931 32.143311,-0.20754 36.512461,-20.674262 56.463381,-26.517623"
     id="path4494-7"
     inkscape:connector-curvature="0"
     sodipodi:nodetypes="ccc" />
  <path
     sodipodi:type="arc"
     style="fill:#000000;fill-opacity:1;fill-rule:nonzero;stroke:#000000;stroke-width:1;stroke-miterlimit:4;stroke-opacity:1;stroke-dasharray:none"
     id="path4534"
     sodipodi:cx="77.509506"
     sodipodi:cy="78.589088"
     sodipodi:rx="9.7528515"
     sodipodi:ry="9.7528515"
     d="m 87.262358,78.589088 a 9.7528515,9.7528515 0 1 1 -19.505703,0 9.7528515,9.7528515 0 1 1 19.505703,0 z"
     transform="translate(-2.0293566,-3.026616)" />
</svg>
